<svg width="128" height="128" viewBox="0 0 128 128" fill="none" xmlns="http://www.w3.org/2000/svg">
<ellipse cx="69.6955" cy="120.123" rx="29.8967" ry="5.15461" fill="url(#paint0_radial_2_3)" fill-opacity="0.2"/>
<path d="M28.4898 41.8852C28.1908 42.2445 27.7749 42.7611 27.2802 43.4207C26.2543 44.7886 24.8879 46.7732 23.5216 49.2456C20.7917 54.1855 18.0469 61.1001 18.0469 68.9461C18.0469 79.6213 21.5572 91.985 29.8944 101.688C38.244 111.405 51.4022 118.415 70.6085 118.415C85.6395 118.415 97.3551 114.528 105.325 108.256C113.301 101.98 117.5 93.3322 117.5 83.8944C117.5 75.4507 112.623 67.1999 104.808 61.0783C96.9873 54.9518 86.1826 50.9204 74.2167 50.9204C62.2561 50.9204 54.1677 54.4327 49.0611 57.968C46.5104 59.7339 44.7084 61.5022 43.5413 62.8336C42.9577 63.4994 42.5327 64.0562 42.2519 64.4492C42.2175 64.4974 42.1853 64.5431 42.1552 64.5862C38.8667 61.5433 38.356 56.4707 38.76 51.9293C38.9683 49.5878 39.4158 47.4371 39.8121 45.8699C40.01 45.0871 40.1948 44.4517 40.3297 44.0131C40.3686 43.8864 40.4034 43.7761 40.4332 43.6835C50.011 43.8999 57.4861 39.6014 63.1982 34.0492C68.9775 28.4317 72.9786 21.5068 75.5691 16.6026L75.9098 15.9578L75.1855 15.8725C61.2326 14.2296 49.0615 18.0897 37.9727 26.0905C36.005 25.0416 34.033 23.8696 32.0542 22.6938C31.8525 22.5739 31.6507 22.454 31.4488 22.3341C29.1802 20.9874 26.904 19.6523 24.6446 18.5292C20.1564 16.298 15.6407 14.853 11.2661 15.8706C11.1113 15.8807 10.9583 15.9357 10.8284 16.0462C10.6857 16.1677 10.6086 16.3242 10.5658 16.4621C10.4837 16.7266 10.4882 17.0523 10.526 17.3794C10.604 18.0531 10.8569 18.9844 11.2431 20.0732C12.0196 22.2627 13.3754 25.1998 15.1289 28.2167C16.8823 31.2335 19.0443 34.3487 21.4395 36.8843C23.6074 39.1792 26.0015 41.0369 28.4898 41.8852Z" stroke="black" stroke-opacity="0.2" stroke-linecap="round"/>
<g filter="url(#filter0_i_2_3)">
<path d="M74.2167 51.4204C50.5055 51.4204 42.2581 65.3378 42.2581 65.3378C34.5116 59.0167 40.0757 43.173 40.0757 43.173C59.2409 43.8385 69.9573 26.1559 75.127 16.3691C61.2098 14.7304 49.0834 18.6165 38.0138 26.6783C28.9215 21.8841 19.7558 14.3718 11.3305 16.3691C9.05881 16.2898 18.8703 38.9527 29.3716 41.6266C29.3716 41.6266 18.5469 53.4822 18.5469 68.9461C18.5469 90.0969 32.4644 117.915 70.6085 117.915C100.505 117.915 117 102.451 117 83.8944C117 67.3997 97.9279 51.4204 74.2167 51.4204Z" fill="url(#paint1_radial_2_3)"/>
</g>
<path d="M74.2167 51.4204C50.5055 51.4204 42.2581 65.3378 42.2581 65.3378C34.5116 59.0167 40.0757 43.173 40.0757 43.173C59.2409 43.8385 69.9573 26.1559 75.127 16.3691C61.2098 14.7304 49.0834 18.6165 38.0138 26.6783C28.9215 21.8841 19.7558 14.3718 11.3305 16.3691C9.05881 16.2898 18.8703 38.9527 29.3716 41.6266C29.3716 41.6266 18.5469 53.4822 18.5469 68.9461C18.5469 76.4954 24.3349 89.1955 29.4896 96.4119C34.6442 103.628 42.0653 104.659 45.9843 104.659C60.4172 104.659 57.4102 101.199 68.1491 101.199C72.7883 101.199 74.3347 105.014 77.9429 105.69C86.1903 107.237 102.17 107.752 111.448 101.199C115.109 96.1051 117 90.177 117 83.8944C117 67.3997 97.9279 51.4204 74.2167 51.4204Z" fill="black" fill-opacity="0.15"/>
<circle cx="67.6336" cy="107.752" r="3.09277" fill="#3C5F86"/>
<ellipse cx="79.1572" cy="59.9243" rx="4.63915" ry="2.06184" transform="rotate(5 79.1572 59.9243)" fill="#2C4663"/>
<defs>
<filter id="filter0_i_2_3" x="8" y="16" width="109" height="105.915" filterUnits="userSpaceOnUse" color-interpolation-filters="sRGB">
<feFlood flood-opacity="0" result="BackgroundImageFix"/>
<feBlend mode="normal" in="SourceGraphic" in2="BackgroundImageFix" result="shape"/>
<feColorMatrix in="SourceAlpha" type="matrix" values="0 0 0 0 0 0 0 0 0 0 0 0 0 0 0 0 0 0 127 0" result="hardAlpha"/>
<feOffset dx="-3" dy="6"/>
<feGaussianBlur stdDeviation="2"/>
<feComposite in2="hardAlpha" operator="arithmetic" k2="-1" k3="1"/>
<feColorMatrix type="matrix" values="0 0 0 0 1 0 0 0 0 1 0 0 0 0 1 0 0 0 0.04 0"/>
<feBlend mode="normal" in2="shape" result="effect1_innerShadow_2_3"/>
</filter>
<radialGradient id="paint0_radial_2_3" cx="0" cy="0" r="1" gradientUnits="userSpaceOnUse" gradientTransform="translate(69.6955 120.123) rotate(90) scale(5.15461 29.8967)">
<stop stop-opacity="0.6"/>
<stop offset="1" stop-color="#C4C4C4" stop-opacity="0"/>
</radialGradient>
<radialGradient id="paint1_radial_2_3" cx="0" cy="0" r="1" gradientUnits="userSpaceOnUse" gradientTransform="translate(82.0666 70.6389) rotate(93.9725) scale(37.2026 78.5216)">
<stop stop-color="#1B73D5"/>
<stop offset="1" stop-color="#3D8DE6"/>
</radialGradient>
</defs>
</svg>
