<svg width="16" height="16" viewBox="0 0 16 16" fill="none" xmlns="http://www.w3.org/2000/svg">
<ellipse cx="8.9826" cy="14.3868" rx="3.5566" ry="0.613207" fill="url(#paint0_radial_14_153)" fill-opacity="0.2"/>
<path d="M5.83865 5.7267C6.96295 5.65496 7.84757 5.11346 8.51669 4.46307C9.25561 3.74483 9.75766 2.87034 10.0708 2.27744L10.4115 1.63261L9.68721 1.54733C8.00081 1.34877 6.51795 1.78355 5.18171 2.68236C5.03366 2.59821 4.88345 2.50895 4.72837 2.41681C4.70487 2.40285 4.68125 2.38881 4.65751 2.37472C4.38848 2.21502 4.10464 2.04826 3.8193 1.90641C3.2699 1.63329 2.62227 1.40328 1.95386 1.55056C1.86462 1.56474 1.77365 1.60229 1.69404 1.67006C1.59334 1.75578 1.54822 1.85804 1.52762 1.92441C1.48991 2.04594 1.49964 2.1596 1.50601 2.2147C1.52103 2.34457 1.5643 2.49243 1.61374 2.63182C1.71678 2.92234 1.89055 3.29657 2.11033 3.6747C2.33007 4.05277 2.60663 4.45344 2.92169 4.78696C3.07026 4.94425 3.23744 5.09735 3.42101 5.22639C3.32228 5.37139 3.21315 5.5445 3.10405 5.74192C2.75831 6.36754 2.3978 7.26476 2.3978 8.29862C2.3978 9.65657 2.84263 11.2343 3.91362 12.4808C4.997 13.7416 6.6881 14.6241 9.0912 14.6241C10.9521 14.6241 12.4496 14.1428 13.4936 13.3213C14.5442 12.4945 15.1101 11.3402 15.1101 10.0769C15.1101 8.89944 14.4341 7.8013 13.4314 7.01585C12.4224 6.22552 11.0412 5.71371 9.52044 5.71371C8.00504 5.71371 6.95583 6.16056 6.27711 6.63045C6.07834 6.76805 5.91299 6.90648 5.77805 7.03423C5.72794 6.83348 5.71667 6.58896 5.7412 6.31329C5.76062 6.09502 5.79998 5.88962 5.83865 5.7267Z" stroke="black" stroke-opacity="0.2" stroke-linecap="round"/>
<g filter="url(#filter0_i_14_153)">
<path d="M9.52044 6.21371C6.69969 6.21371 5.71856 7.86937 5.71856 7.86937C4.79701 7.11739 5.45893 5.23258 5.45893 5.23258C7.73888 5.31175 9.01374 3.20818 9.62874 2.0439C7.97311 1.84896 6.53051 2.31126 5.21365 3.27032C4.13199 2.69999 3.04162 1.80631 2.03931 2.0439C1.76907 2.03448 2.93628 4.73052 4.18554 5.04862C4.18554 5.04862 2.8978 6.45899 2.8978 8.29862C2.8978 10.8148 4.55346 14.1241 9.0912 14.1241C12.6478 14.1241 14.6101 12.2845 14.6101 10.0769C14.6101 8.11466 12.3412 6.21371 9.52044 6.21371Z" fill="url(#paint1_radial_14_153)"/>
</g>
<path d="M9.52044 6.21371C6.69969 6.21371 5.71856 7.86937 5.71856 7.86937C4.79701 7.11739 5.45893 5.23258 5.45893 5.23258C7.73888 5.31175 9.01374 3.20818 9.62874 2.0439C7.97311 1.84896 6.53051 2.31126 5.21365 3.27032C4.13199 2.69999 3.04162 1.80631 2.03931 2.0439C1.76907 2.03448 2.93628 4.73052 4.18554 5.04862C4.18554 5.04862 2.8978 6.459 2.8978 8.29862C2.8978 9.19671 3.58636 10.7075 4.19957 11.566C4.81278 12.4245 5.69561 12.5472 6.16184 12.5472C7.87882 12.5472 7.5211 12.1355 8.79863 12.1355C9.35051 12.1355 9.53448 12.5893 9.96372 12.6698C10.9449 12.8538 12.8458 12.9151 13.9496 12.1355C14.3851 11.5295 14.6101 10.8243 14.6101 10.0769C14.6101 8.11466 12.3412 6.21371 9.52044 6.21371Z" fill="black" fill-opacity="0.15"/>
<circle cx="8.73731" cy="12.9151" r="0.367925" fill="#3C5F86"/>
<ellipse cx="10.1082" cy="7.22536" rx="0.551887" ry="0.245283" transform="rotate(5 10.1082 7.22536)" fill="#2C4663"/>
<defs>
<filter id="filter0_i_14_153" x="-1" y="2" width="15.6101" height="16.1241" filterUnits="userSpaceOnUse" color-interpolation-filters="sRGB">
<feFlood flood-opacity="0" result="BackgroundImageFix"/>
<feBlend mode="normal" in="SourceGraphic" in2="BackgroundImageFix" result="shape"/>
<feColorMatrix in="SourceAlpha" type="matrix" values="0 0 0 0 0 0 0 0 0 0 0 0 0 0 0 0 0 0 127 0" result="hardAlpha"/>
<feOffset dx="-3" dy="6"/>
<feGaussianBlur stdDeviation="2"/>
<feComposite in2="hardAlpha" operator="arithmetic" k2="-1" k3="1"/>
<feColorMatrix type="matrix" values="0 0 0 0 1 0 0 0 0 1 0 0 0 0 1 0 0 0 0.04 0"/>
<feBlend mode="normal" in2="shape" result="effect1_innerShadow_14_153"/>
</filter>
<radialGradient id="paint0_radial_14_153" cx="0" cy="0" r="1" gradientUnits="userSpaceOnUse" gradientTransform="translate(8.9826 14.3868) rotate(90) scale(0.613207 3.5566)">
<stop stop-opacity="0.6"/>
<stop offset="1" stop-color="#C4C4C4" stop-opacity="0"/>
</radialGradient>
<radialGradient id="paint1_radial_14_153" cx="0" cy="0" r="1" gradientUnits="userSpaceOnUse" gradientTransform="translate(10.4543 8.5) rotate(93.9725) scale(4.42573 9.34116)">
<stop stop-color="#1B73D5"/>
<stop offset="1" stop-color="#3D8DE6"/>
</radialGradient>
</defs>
</svg>
