<svg width="24" height="24" viewBox="0 0 24 24" fill="none" xmlns="http://www.w3.org/2000/svg">
<ellipse cx="12.5209" cy="21.6636" rx="5.35885" ry="0.923939" fill="url(#paint0_radial_14_138)" fill-opacity="0.2"/>
<path d="M7.58398 8.37102C9.28957 8.31704 10.6275 7.51592 11.6423 6.52951C12.7261 5.47605 13.4676 4.18758 13.9366 3.29969L14.2772 2.65486L13.5529 2.56958C11.0258 2.27202 8.8103 2.94158 6.80679 4.32604C6.53582 4.17522 6.26247 4.01279 5.98231 3.84632C5.9466 3.8251 5.91077 3.80381 5.87483 3.78247C5.46898 3.54155 5.04882 3.29486 4.62841 3.08587C3.81063 2.67932 2.89898 2.36608 1.97747 2.57191C1.88315 2.58563 1.78703 2.62447 1.70323 2.6958C1.59966 2.78397 1.55235 2.88994 1.53023 2.9612C1.48948 3.09252 1.49886 3.22068 1.50739 3.29439C1.52671 3.46147 1.58431 3.66294 1.6568 3.86729C1.80592 4.28774 2.06057 4.83733 2.38528 5.396C2.70997 5.95462 3.11553 6.54103 3.57292 7.02522C3.84898 7.31746 4.16005 7.58973 4.49914 7.79202C4.32023 8.03951 4.10271 8.36714 3.88527 8.76062C3.37639 9.68144 2.85275 10.9904 2.85275 12.4903C2.85275 14.4858 3.50732 16.8016 5.07548 18.6266C6.65603 20.4661 9.13173 21.7678 12.6845 21.7678C15.4466 21.7678 17.6432 21.0534 19.161 19.859C20.6856 18.6594 21.5 16.9923 21.5 15.1698C21.5 13.4951 20.5366 11.9076 19.0678 10.757C17.5927 9.60157 15.5667 8.84894 13.3313 8.84894C11.1012 8.84894 9.57037 9.50553 8.58868 10.1852C8.14748 10.4906 7.82107 10.798 7.59371 11.0466C7.38055 10.6327 7.3315 10.0735 7.38461 9.47652C7.41947 9.08476 7.49478 8.7216 7.56228 8.45466C7.56965 8.42551 7.57691 8.39761 7.58398 8.37102Z" stroke="black" stroke-opacity="0.2" stroke-linecap="round"/>
<g filter="url(#filter0_i_14_138)">
<path d="M13.3313 9.34894C9.08117 9.34894 7.60287 11.8436 7.60287 11.8436C6.21435 10.7105 7.21168 7.87064 7.21168 7.87064C10.647 7.98992 12.5678 4.8204 13.4945 3.06615C10.9999 2.77243 8.82627 3.46899 6.8421 4.91403C5.21234 4.0547 3.56944 2.70816 2.05923 3.06615C1.65205 3.05195 3.41072 7.11417 5.29302 7.59346C5.29302 7.59346 3.35275 9.71851 3.35275 12.4903C3.35275 16.2815 5.84739 21.2678 12.6845 21.2678C18.0434 21.2678 21 18.4959 21 15.1698C21 12.2132 17.5814 9.34894 13.3313 9.34894Z" fill="url(#paint1_radial_14_138)"/>
</g>
<path d="M13.3313 9.34894C9.08117 9.34894 7.60287 11.8436 7.60287 11.8436C6.21435 10.7105 7.21168 7.87064 7.21168 7.87064C10.647 7.98992 12.5678 4.8204 13.4945 3.06615C10.9999 2.77243 8.82627 3.46899 6.8421 4.91403C5.21234 4.0547 3.56944 2.70816 2.05923 3.06615C1.65205 3.05195 3.41072 7.11417 5.29302 7.59346C5.29302 7.59346 3.35275 9.71851 3.35275 12.4903C3.35275 13.8435 4.39023 16.1199 5.31417 17.4135C6.2381 18.707 7.5683 18.8918 8.27077 18.8918C10.8578 18.8918 10.3188 18.2715 12.2437 18.2715C13.0753 18.2715 13.3524 18.9553 13.9992 19.0765C15.4775 19.3537 18.3417 19.4461 20.0048 18.2715C20.6611 17.3585 21 16.2959 21 15.1698C21 12.2132 17.5814 9.34894 13.3313 9.34894Z" fill="black" fill-opacity="0.15"/>
<circle cx="12.1513" cy="19.4461" r="0.554364" fill="#3C5F86"/>
<ellipse cx="14.2168" cy="10.8732" rx="0.831546" ry="0.369576" transform="rotate(5 14.2168 10.8732)" fill="#2C4663"/>
<defs>
<filter id="filter0_i_14_138" x="-1" y="3" width="22" height="22.2678" filterUnits="userSpaceOnUse" color-interpolation-filters="sRGB">
<feFlood flood-opacity="0" result="BackgroundImageFix"/>
<feBlend mode="normal" in="SourceGraphic" in2="BackgroundImageFix" result="shape"/>
<feColorMatrix in="SourceAlpha" type="matrix" values="0 0 0 0 0 0 0 0 0 0 0 0 0 0 0 0 0 0 127 0" result="hardAlpha"/>
<feOffset dx="-3" dy="6"/>
<feGaussianBlur stdDeviation="2"/>
<feComposite in2="hardAlpha" operator="arithmetic" k2="-1" k3="1"/>
<feColorMatrix type="matrix" values="0 0 0 0 1 0 0 0 0 1 0 0 0 0 1 0 0 0 0.04 0"/>
<feBlend mode="normal" in2="shape" result="effect1_innerShadow_14_138"/>
</filter>
<radialGradient id="paint0_radial_14_138" cx="0" cy="0" r="1" gradientUnits="userSpaceOnUse" gradientTransform="translate(12.5209 21.6636) rotate(90) scale(0.923939 5.35885)">
<stop stop-opacity="0.6"/>
<stop offset="1" stop-color="#C4C4C4" stop-opacity="0"/>
</radialGradient>
<radialGradient id="paint1_radial_14_138" cx="0" cy="0" r="1" gradientUnits="userSpaceOnUse" gradientTransform="translate(14.7384 12.7938) rotate(93.9725) scale(6.66838 14.0746)">
<stop stop-color="#1B73D5"/>
<stop offset="1" stop-color="#3D8DE6"/>
</radialGradient>
</defs>
</svg>
