<svg width="32" height="32" viewBox="0 0 32 32" fill="none" xmlns="http://www.w3.org/2000/svg">
<ellipse cx="16.8433" cy="29.5573" rx="7.05112" ry="1.21571" fill="url(#paint0_radial_14_123)" fill-opacity="0.2"/>
<path d="M10.1657 12.1385C10.1868 12.0551 10.2072 11.9793 10.226 11.9121C12.4758 11.8759 14.2381 10.8325 15.5772 9.53086C16.9848 8.16264 17.9511 6.48545 18.5664 5.32058L18.907 4.67575L18.1828 4.59047C14.867 4.20005 11.9643 5.08985 9.33422 6.93051C8.9469 6.71738 8.55715 6.48578 8.15969 6.2496C8.11252 6.22157 8.06525 6.19348 8.01786 6.16534C7.48355 5.84816 6.93538 5.52641 6.38815 5.25437C5.31794 4.72234 4.15818 4.33099 2.99886 4.59214C2.89999 4.6055 2.79934 4.64551 2.71187 4.71997C2.60559 4.81044 2.55623 4.91989 2.53269 4.99575C2.48909 5.13625 2.49813 5.27803 2.50867 5.36921C2.53204 5.57124 2.60311 5.82304 2.69723 6.08839C2.88963 6.63083 3.22021 7.34508 3.64346 8.07329C4.06668 8.80144 4.59337 9.56225 5.18441 10.1879C5.58461 10.6116 6.03442 10.9948 6.52081 11.2555C6.27195 11.5888 5.94533 12.0653 5.61881 12.6561C4.95676 13.8541 4.27993 15.5497 4.27993 17.4873C4.27993 20.0813 5.13144 23.0901 7.16644 25.4584C9.21382 27.8412 12.4262 29.5365 17.0586 29.5365C20.6668 29.5365 23.5199 28.6033 25.4827 27.0588C27.4522 25.5091 28.5 23.3606 28.5 21.0128C28.5 18.8714 27.2667 16.8243 25.3602 15.3309C23.4475 13.8326 20.8161 12.8539 17.9096 12.8539C15.0084 12.8539 13.0254 13.7074 11.7592 14.584C11.1287 15.0205 10.6807 15.4594 10.3875 15.7938C10.3691 15.8148 10.3513 15.8354 10.3341 15.8556C9.93316 15.2521 9.84934 14.389 9.92774 13.5077C9.97456 12.9815 10.0755 12.4951 10.1657 12.1385Z" stroke="black" stroke-opacity="0.2" stroke-linecap="round"/>
<g filter="url(#filter0_i_14_123)">
<path d="M17.9096 13.3539C12.3173 13.3539 10.3722 16.6363 10.3722 16.6363C8.5452 15.1454 9.85747 11.4087 9.85747 11.4087C14.3776 11.5657 16.905 7.39526 18.1243 5.08704C14.8419 4.70056 11.9819 5.6171 9.37119 7.51846C7.22677 6.38776 5.06505 4.61599 3.07794 5.08704C2.54217 5.06835 4.85621 10.4134 7.33292 11.044C7.33292 11.044 4.77993 13.8401 4.77993 17.4873C4.77993 22.4757 8.06235 29.0365 17.0586 29.0365C24.1097 29.0365 28 25.3894 28 21.0128C28 17.1226 23.5019 13.3539 17.9096 13.3539Z" fill="url(#paint1_radial_14_123)"/>
</g>
<path d="M17.9096 13.3539C12.3173 13.3539 10.3722 16.6363 10.3722 16.6363C8.5452 15.1454 9.85747 11.4087 9.85747 11.4087C14.3776 11.5657 16.905 7.39526 18.1243 5.08704C14.8419 4.70056 11.9819 5.6171 9.37119 7.51846C7.22677 6.38776 5.06505 4.61599 3.07794 5.08704C2.54217 5.06835 4.85621 10.4134 7.33292 11.044C7.33292 11.044 4.77993 13.8401 4.77993 17.4873C4.77993 19.2678 6.14503 22.2631 7.36074 23.9651C8.57645 25.6671 10.3267 25.9102 11.251 25.9102C14.655 25.9102 13.9458 25.094 16.4786 25.094C17.5727 25.094 17.9374 25.9938 18.7884 26.1534C20.7336 26.5181 24.5023 26.6396 26.6905 25.094C27.5541 23.8927 28 22.4946 28 21.0128C28 17.1226 23.5019 13.3539 17.9096 13.3539Z" fill="black" fill-opacity="0.15"/>
<circle cx="16.357" cy="26.6396" r="0.729426" fill="#3C5F86"/>
<ellipse cx="19.0748" cy="15.3595" rx="1.09414" ry="0.486284" transform="rotate(5 19.0748 15.3595)" fill="#2C4663"/>
<defs>
<filter id="filter0_i_14_123" x="0" y="5" width="28" height="28.0365" filterUnits="userSpaceOnUse" color-interpolation-filters="sRGB">
<feFlood flood-opacity="0" result="BackgroundImageFix"/>
<feBlend mode="normal" in="SourceGraphic" in2="BackgroundImageFix" result="shape"/>
<feColorMatrix in="SourceAlpha" type="matrix" values="0 0 0 0 0 0 0 0 0 0 0 0 0 0 0 0 0 0 127 0" result="hardAlpha"/>
<feOffset dx="-3" dy="6"/>
<feGaussianBlur stdDeviation="2"/>
<feComposite in2="hardAlpha" operator="arithmetic" k2="-1" k3="1"/>
<feColorMatrix type="matrix" values="0 0 0 0 1 0 0 0 0 1 0 0 0 0 1 0 0 0 0.04 0"/>
<feBlend mode="normal" in2="shape" result="effect1_innerShadow_14_123"/>
</filter>
<radialGradient id="paint0_radial_14_123" cx="0" cy="0" r="1" gradientUnits="userSpaceOnUse" gradientTransform="translate(16.8433 29.5573) rotate(90) scale(1.21571 7.05112)">
<stop stop-opacity="0.6"/>
<stop offset="1" stop-color="#C4C4C4" stop-opacity="0"/>
</radialGradient>
<radialGradient id="paint1_radial_14_123" cx="0" cy="0" r="1" gradientUnits="userSpaceOnUse" gradientTransform="translate(19.761 17.8865) rotate(93.9725) scale(8.77419 18.5192)">
<stop stop-color="#1B73D5"/>
<stop offset="1" stop-color="#3D8DE6"/>
</radialGradient>
</defs>
</svg>
