<svg width="48" height="48" viewBox="0 0 48 48" fill="none" xmlns="http://www.w3.org/2000/svg">
<ellipse cx="25.5955" cy="44.3095" rx="10.9997" ry="1.89651" fill="url(#paint0_radial_14_108)" fill-opacity="0.2"/>
<path d="M9.92086 15.6587C9.86359 15.7322 9.80212 15.8124 9.73707 15.8991C9.35259 16.4118 8.84145 17.1543 8.33041 18.079C7.31094 19.9238 6.2767 22.5213 6.2767 25.4801C6.2767 29.471 7.58775 34.0966 10.712 37.7326C13.8487 41.3831 18.7801 43.997 25.9314 43.997C31.5139 43.997 35.8988 42.5532 38.8998 40.1917C41.9075 37.825 43.5 34.5532 43.5 30.98C43.5 27.7493 41.6369 24.6299 38.7093 22.3366C35.7754 20.0384 31.7313 18.532 27.259 18.532C22.792 18.532 19.7537 19.8451 17.8237 21.1812C16.8613 21.8475 16.1793 22.5161 15.7351 23.0229C15.6177 23.1568 15.5169 23.2794 15.4319 23.3878C14.5535 22.3553 14.3928 20.7715 14.5284 19.2473C14.6031 18.4073 14.764 17.6332 14.9071 17.0674C14.9639 16.8427 15.0176 16.652 15.0615 16.5043C18.5793 16.5112 21.3301 14.9039 23.4253 12.8674C25.5885 10.7647 27.0793 8.1805 28.036 6.36932L28.3766 5.72449L27.6524 5.63922C22.4974 5.03225 17.9922 6.43564 13.9002 9.34092C13.2403 8.98293 12.5778 8.58927 11.9069 8.19059C11.833 8.14668 11.759 8.1027 11.6849 8.05871C10.8509 7.56359 10.004 7.06669 9.16087 6.64754C7.50084 5.8223 5.76165 5.24879 4.04709 5.63977C3.93808 5.65239 3.82751 5.69506 3.73202 5.77636C3.61944 5.8722 3.56528 5.98978 3.53841 6.07635C3.48816 6.23828 3.49642 6.41186 3.51168 6.54381C3.54447 6.82736 3.64697 7.19661 3.79157 7.6043C4.08493 8.4314 4.59272 9.52985 5.24588 10.6536C5.89902 11.7773 6.70834 12.9451 7.61122 13.9009C8.30933 14.6399 9.08931 15.2799 9.92086 15.6587Z" stroke="black" stroke-opacity="0.2" stroke-linecap="round"/>
<g filter="url(#filter0_i_14_108)">
<path d="M27.259 19.032C18.535 19.032 15.5006 24.1526 15.5006 24.1526C12.6505 21.8269 14.6977 15.9976 14.6977 15.9976C21.749 16.2425 25.6918 9.73661 27.5939 6.13579C22.4734 5.53287 18.0118 6.96267 13.9391 9.9288C10.5938 8.1649 7.22148 5.40095 4.12158 6.13579C3.28579 6.10663 6.89568 14.4449 10.7594 15.4287C10.7594 15.4287 6.7767 19.7906 6.7767 25.4801C6.7767 33.262 11.8973 43.497 25.9314 43.497C36.9312 43.497 43 37.8075 43 30.98C43 24.9112 35.9829 19.032 27.259 19.032Z" fill="url(#paint1_radial_14_108)"/>
</g>
<path d="M27.259 19.032C18.535 19.032 15.5006 24.1526 15.5006 24.1526C12.6505 21.8269 14.6977 15.9976 14.6977 15.9976C21.749 16.2425 25.6918 9.73661 27.5939 6.13579C22.4734 5.53287 18.0118 6.96267 13.9391 9.9288C10.5938 8.1649 7.22148 5.40095 4.12158 6.13579C3.28579 6.10663 6.89568 14.4449 10.7594 15.4287C10.7594 15.4287 6.7767 19.7906 6.7767 25.4802C6.7767 28.2578 8.90625 32.9304 10.8028 35.5855C12.6993 38.2406 15.4297 38.6199 16.8716 38.6199C22.1818 38.6199 21.0755 37.3467 25.0266 37.3467C26.7334 37.3467 27.3024 38.7503 28.6299 38.9992C31.6643 39.5682 37.5435 39.7578 40.9572 37.3467C42.3044 35.4726 43 33.2916 43 30.98C43 24.9112 35.9829 19.032 27.259 19.032Z" fill="black" fill-opacity="0.15"/>
<circle cx="24.8369" cy="39.7578" r="1.1379" fill="#3C5F86"/>
<ellipse cx="29.0767" cy="22.1608" rx="1.70686" ry="0.758603" transform="rotate(5 29.0767 22.1608)" fill="#2C4663"/>
<defs>
<filter id="filter0_i_14_108" x="1" y="6" width="42" height="41.497" filterUnits="userSpaceOnUse" color-interpolation-filters="sRGB">
<feFlood flood-opacity="0" result="BackgroundImageFix"/>
<feBlend mode="normal" in="SourceGraphic" in2="BackgroundImageFix" result="shape"/>
<feColorMatrix in="SourceAlpha" type="matrix" values="0 0 0 0 0 0 0 0 0 0 0 0 0 0 0 0 0 0 127 0" result="hardAlpha"/>
<feOffset dx="-3" dy="6"/>
<feGaussianBlur stdDeviation="2"/>
<feComposite in2="hardAlpha" operator="arithmetic" k2="-1" k3="1"/>
<feColorMatrix type="matrix" values="0 0 0 0 1 0 0 0 0 1 0 0 0 0 1 0 0 0 0.04 0"/>
<feBlend mode="normal" in2="shape" result="effect1_innerShadow_14_108"/>
</filter>
<radialGradient id="paint0_radial_14_108" cx="0" cy="0" r="1" gradientUnits="userSpaceOnUse" gradientTransform="translate(25.5955 44.3095) rotate(90) scale(1.89651 10.9997)">
<stop stop-opacity="0.6"/>
<stop offset="1" stop-color="#C4C4C4" stop-opacity="0"/>
</radialGradient>
<radialGradient id="paint1_radial_14_108" cx="0" cy="0" r="1" gradientUnits="userSpaceOnUse" gradientTransform="translate(30.1471 26.103) rotate(93.9725) scale(13.6877 28.89)">
<stop stop-color="#1B73D5"/>
<stop offset="1" stop-color="#3D8DE6"/>
</radialGradient>
</defs>
</svg>
