<svg width="64" height="64" viewBox="0 0 64 64" fill="none" xmlns="http://www.w3.org/2000/svg">
<ellipse cx="34.4552" cy="59.0261" rx="15.5125" ry="2.67456" fill="url(#paint0_radial_7_38)" fill-opacity="0.2"/>
<path d="M12.6765 18.5388C12.5539 18.6919 12.4119 18.874 12.2548 19.0834C11.7172 19.8003 11.0018 20.8394 10.2865 22.1337C8.85857 24.7176 7.41586 28.3461 7.41586 32.472C7.41586 38.0591 9.25209 44.5326 13.6212 49.6175C18.0028 54.7168 24.8988 58.3804 34.9289 58.3804C42.7678 58.3804 48.9033 56.353 53.0908 53.0579C57.2851 49.7575 59.5 45.2019 59.5 40.2282C59.5 35.7526 56.9172 31.4078 52.8225 28.2003C48.7215 24.9879 43.063 22.8785 36.8011 22.8785C30.5446 22.8785 26.3003 24.7168 23.6118 26.5781C22.27 27.5069 21.3206 28.4382 20.7037 29.1419C20.4658 29.4133 20.2772 29.6511 20.1346 29.8419C18.6889 28.3265 18.4434 25.9123 18.6434 23.6639C18.75 22.4653 18.9793 21.3625 19.1829 20.5575C19.2842 20.1569 19.3787 19.8318 19.4476 19.6077C24.4131 19.6643 28.2926 17.4139 31.2516 14.5377C34.2784 11.5956 36.3687 7.97484 37.7156 5.42503L38.0562 4.7802L37.3319 4.69492C30.0757 3.84054 23.7396 5.8307 17.9767 9.95279C17.0048 9.42961 16.0299 8.85029 15.0466 8.26598C14.9422 8.20392 14.8376 8.14181 14.733 8.0797C13.5564 7.38122 12.3682 6.68416 11.1868 6.09688C8.85195 4.93615 6.45008 4.15451 4.10058 4.6946C3.98039 4.70651 3.85917 4.75216 3.75504 4.8408C3.63526 4.94278 3.57562 5.06965 3.54495 5.16847C3.4871 5.3549 3.49446 5.5648 3.51511 5.74334C3.55867 6.12008 3.69709 6.62355 3.89939 7.1939C4.30814 8.34632 5.01844 9.88387 5.93436 11.4597C6.85026 13.0355 7.98259 14.6683 9.24186 16.0014C10.2872 17.108 11.4497 18.0398 12.6765 18.5388Z" stroke="black" stroke-opacity="0.2" stroke-linecap="round"/>
<g filter="url(#filter0_i_7_38)">
<path d="M36.8011 23.3785C24.4981 23.3785 20.2188 30.5998 20.2188 30.5998C16.1994 27.32 19.0864 19.0992 19.0864 19.0992C29.0307 19.4445 34.5911 10.2696 37.2735 5.19149C30.0523 4.34123 23.7603 6.35761 18.0166 10.5406C13.2989 8.05307 8.54311 4.15519 4.17147 5.19149C2.99278 5.15038 8.08366 16.9094 13.5324 18.2968C13.5324 18.2968 7.91586 24.4483 7.91586 32.472C7.91586 43.4465 15.1372 57.8804 34.9289 57.8804C50.4414 57.8804 59 49.8567 59 40.2282C59 31.6697 49.1041 23.3785 36.8011 23.3785Z" fill="url(#paint1_radial_7_38)"/>
</g>
<path d="M36.8011 23.3785C24.4981 23.3785 20.2188 30.5998 20.2188 30.5998C16.1994 27.32 19.0864 19.0992 19.0864 19.0992C29.0307 19.4445 34.5911 10.2696 37.2735 5.19149C30.0523 4.34123 23.7603 6.35761 18.0166 10.5406C13.2989 8.05307 8.54311 4.15519 4.17147 5.19149C2.99278 5.15038 8.08366 16.9094 13.5324 18.2968C13.5324 18.2968 7.91586 24.4483 7.91586 32.472C7.91586 36.3891 10.9191 42.9788 13.5936 46.7232C16.2682 50.4676 20.1188 51.0025 22.1522 51.0025C29.641 51.0025 28.0808 49.2068 33.6528 49.2068C36.06 49.2068 36.8623 51.1863 38.7345 51.5374C43.0138 52.3397 51.305 52.6072 56.1192 49.2068C58.019 46.564 59 43.4881 59 40.2283C59 31.6697 49.1041 23.3785 36.8011 23.3785Z" fill="black" fill-opacity="0.15"/>
<circle cx="33.3854" cy="52.6072" r="1.60474" fill="#3C5F86"/>
<ellipse cx="39.3646" cy="27.7909" rx="2.40711" ry="1.06982" transform="rotate(5 39.3646 27.7909)" fill="#2C4663"/>
<defs>
<filter id="filter0_i_7_38" x="1" y="5" width="58" height="56.8804" filterUnits="userSpaceOnUse" color-interpolation-filters="sRGB">
<feFlood flood-opacity="0" result="BackgroundImageFix"/>
<feBlend mode="normal" in="SourceGraphic" in2="BackgroundImageFix" result="shape"/>
<feColorMatrix in="SourceAlpha" type="matrix" values="0 0 0 0 0 0 0 0 0 0 0 0 0 0 0 0 0 0 127 0" result="hardAlpha"/>
<feOffset dx="-3" dy="6"/>
<feGaussianBlur stdDeviation="2"/>
<feComposite in2="hardAlpha" operator="arithmetic" k2="-1" k3="1"/>
<feColorMatrix type="matrix" values="0 0 0 0 1 0 0 0 0 1 0 0 0 0 1 0 0 0 0.04 0"/>
<feBlend mode="normal" in2="shape" result="effect1_innerShadow_7_38"/>
</filter>
<radialGradient id="paint0_radial_7_38" cx="0" cy="0" r="1" gradientUnits="userSpaceOnUse" gradientTransform="translate(34.4552 59.0262) rotate(90) scale(2.67456 15.5125)">
<stop stop-opacity="0.6"/>
<stop offset="1" stop-color="#C4C4C4" stop-opacity="0"/>
</radialGradient>
<radialGradient id="paint1_radial_7_38" cx="0" cy="0" r="1" gradientUnits="userSpaceOnUse" gradientTransform="translate(40.8742 33.3503) rotate(93.9725) scale(19.3032 40.7423)">
<stop stop-color="#1B73D5"/>
<stop offset="1" stop-color="#3D8DE6"/>
</radialGradient>
</defs>
</svg>
