<svg width="64" height="64" fill="none" xmlns="http://www.w3.org/2000/svg"><path d="M53.27 26.41c2.78 0 4.08.92 4.23 1.03l.5.34-.22.59c-.36.8-.86 1.52-1.53 2.1-1.01.95-2.84 2.05-5.8 2.05h-.48C45.62 44.16 35.27 49 24.47 49 13.7 49 6 40.91 6 30.93c-.01-.15.09-1.05 1.3-1.05l38.4.01a6.44 6.44 0 0 1-.87-5.36c.27-1.02.72-2 1.32-2.88l.48-.65.75.4c.12.1 3.17 1.76 3.7 5.2.72-.12 1.47-.19 2.19-.19Z" fill="#333"/><rect x="36" y="19" width="4" height="8" rx="1" fill="#333"/><path d="M30 18a1 1 0 0 1 1-1h2a1 1 0 0 1 1 1v8a1 1 0 0 1-1 1h-2a1 1 0 0 1-1-1v-8Z" fill="#333"/><rect x="13" y="15" width="15" height="12" rx="1" fill="#333"/></svg>