<svg width="64" height="64" viewBox="0 0 64 64" fill="none" xmlns="http://www.w3.org/2000/svg">
<path d="M53.2666 26.4115C56.0538 26.4115 57.3513 27.3322 57.4954 27.4445L58 27.7813L57.7838 28.3651C57.4233 29.1735 56.9188 29.892 56.246 30.4758C55.2368 31.4189 53.4107 32.5192 50.4554 32.5192H49.9748C45.6225 44.1627 35.2719 49 24.4789 49C13.6859 49 6.00124 40.9149 6.00124 30.9251C5.98634 30.7799 6.08759 29.8761 7.2964 29.8761C8.50522 29.8761 45.6979 29.892 45.6979 29.892C44.6407 28.3202 44.3284 26.4789 44.8329 24.5254C45.0972 23.5149 45.5538 22.5269 46.1545 21.6512L46.635 21L47.3799 21.4042C47.5 21.494 50.5515 23.1556 51.0801 26.5912C51.8009 26.4789 52.5458 26.4115 53.2666 26.4115Z" fill="#333333"/>
<rect x="36" y="19" width="4" height="8" rx="1" fill="#333333"/>
<path d="M30 18C30 17.4477 30.4477 17 31 17H33C33.5523 17 34 17.4477 34 18V26C34 26.5523 33.5523 27 33 27H31C30.4477 27 30 26.5523 30 26V18Z" fill="#333333"/>
<rect x="13" y="15" width="15" height="12" rx="1" fill="#333333"/>
</svg>
